<?xml version="1.0" encoding="UTF-8"?>
<svg version="1.1" xmlns="http://www.w3.org/2000/svg" width="1033" height="321">
<path d="M0 0 C2.13914929 -0.00970466 4.27733421 -0.04084333 6.41625977 -0.07226562 C20.45529873 -0.18103113 35.68316055 1.37561533 46.77758789 10.90429688 C59.15590328 24.45855223 57.97119918 43.5590935 58.03931808 60.71339607 C58.05123935 63.4494985 58.07071535 66.18545225 58.09243774 68.92149353 C58.15367553 76.69167204 58.2083305 84.46182384 58.24145508 92.23217773 C58.26233449 97.00416983 58.29755546 101.7758708 58.34221268 106.54769707 C58.35639652 108.36300692 58.36510048 110.17836804 58.36826706 111.99373055 C58.37314659 114.51900261 58.39621735 117.04348967 58.42358398 119.56860352 C58.42057785 120.32024277 58.41757172 121.07188202 58.41447449 121.84629822 C58.41648636 124.13570477 58.41648636 124.13570477 58.84008789 127.24023438 C61.84875486 129.24601235 63.48484864 129.6990194 66.96508789 130.30273438 C71.73991214 131.14005863 71.73991214 131.14005863 72.84008789 132.24023438 C72.99188167 134.54925134 73.06189911 136.86390506 73.09008789 139.17773438 C73.12875977 141.07845703 73.12875977 141.07845703 73.16821289 143.01757812 C73.00579102 144.61279297 73.00579102 144.61279297 72.84008789 146.24023438 C65.79436332 150.93738409 54.29518384 150.24867278 46.15649414 148.74414062 C41.73478814 147.26466622 39.21480877 145.19810251 36.84008789 141.24023438 C36.27967504 139.85828262 35.74551027 138.46546828 35.23461914 137.06445312 C34.97140869 136.34733154 34.70819824 135.63020996 34.43701172 134.89135742 C34.24002686 134.34648682 34.04304199 133.80161621 33.84008789 133.24023438 C33.34307373 133.51697998 32.84605957 133.79372559 32.33398438 134.07885742 C10.4567295 146.16858827 -14.24352098 155.71457223 -39.53491211 148.61523438 C-49.30525762 144.94657791 -54.62891224 139.6162638 -59.15991211 130.24023438 C-64.4217634 115.70750225 -63.49511571 97.56956646 -57.98803711 83.17773438 C-52.70633544 72.22309388 -45.16064865 66.58444589 -34.00756836 62.09960938 C-25.36257837 59.49069607 -17.15132718 58.96424484 -8.15209961 59.04492188 C-6.94546661 59.04775177 -5.73883362 59.05058167 -4.49563599 59.05349731 C-0.67529001 59.06461296 3.14481383 59.08970165 6.96508789 59.11523438 C9.56925115 59.1252753 12.17341812 59.1343992 14.77758789 59.14257812 C21.13183593 59.16452405 27.4859446 59.197915 33.84008789 59.24023438 C33.75234889 56.23895543 33.64537077 53.24036441 33.52758789 50.24023438 C33.5050293 49.40105469 33.4824707 48.561875 33.45922852 47.69726562 C33.09888098 39.24547803 31.16248186 32.28163306 24.84008789 26.24023438 C16.54425804 21.85235743 7.42283954 22.04769983 -1.72241211 22.05273438 C-2.93574219 22.05208984 -4.14907227 22.05144531 -5.39916992 22.05078125 C-19.03298504 22.12763084 -32.57536202 23.11566572 -46.15991211 24.24023438 C-48.29573525 20.80781484 -49.66049746 18.21675033 -50.15991211 14.17773438 C-50.28366211 13.34113281 -50.40741211 12.50453125 -50.53491211 11.64257812 C-50.15991211 9.24023438 -50.15991211 9.24023438 -48.26147461 7.06835938 C-44.13461295 4.63590187 -40.21531519 3.88177438 -35.53491211 3.05273438 C-34.69573242 2.88837891 -33.85655273 2.72402344 -32.99194336 2.5546875 C-22.03819337 0.48936212 -11.12086239 0.03036068 0 0 Z M-31.15991211 85.24023438 C-38.3377835 93.74801594 -38.80166114 103.54896853 -38.15991211 114.24023438 C-37.48468539 119.63253788 -35.35116657 122.74752232 -31.15991211 126.24023438 C-23.73973676 131.02744428 -13.3406465 129.83531936 -5.15014648 128.11254883 C6.8926401 125.3624192 25.03446347 121.0458588 33.84008789 112.24023438 C33.92856532 109.71929361 33.95536091 107.22592545 33.93774414 104.70507812 C33.93632919 103.95182755 33.93491425 103.19857697 33.93345642 102.42250061 C33.92784165 100.00753878 33.91528672 97.59266837 33.90258789 95.17773438 C33.89757479 93.54427217 33.89301155 91.91080851 33.88891602 90.27734375 C33.87786743 86.26493853 33.86059295 82.25260197 33.84008789 78.24023438 C27.16897873 78.1892715 20.49792031 78.1543909 13.82666016 78.13037109 C11.56003951 78.1203511 9.29343166 78.10673141 7.02685547 78.08935547 C3.75753609 78.06493076 0.48838853 78.05371095 -2.78100586 78.04492188 C-3.7844957 78.0345993 -4.78798553 78.02427673 -5.82188416 78.01364136 C-15.14789142 78.01217434 -23.87167601 78.95452857 -31.15991211 85.24023438 Z " fill="#0069B3" transform="translate(208.159912109375,47.759765625)"/>
<path d="M0 0 C2.22043602 -0.00968777 4.43993671 -0.04080104 6.66015625 -0.07226562 C20.70430253 -0.17670339 35.31985665 1.13725646 46.36328125 10.74023438 C47.06453125 11.56523438 47.76578125 12.39023437 48.48828125 13.24023438 C49.16890625 13.94148438 49.84953125 14.64273438 50.55078125 15.36523438 C56.3237939 23.93164024 57.62357794 33.68931886 57.67773438 43.79663086 C57.69017433 45.05391998 57.69017433 45.05391998 57.7028656 46.33660889 C57.72020082 48.14862164 57.73538515 49.96065599 57.74864197 51.77270317 C57.76977305 54.64418561 57.79678746 57.51556028 57.82531738 60.38697815 C57.88485389 66.48385495 57.93708364 72.5807826 57.98828125 78.67773438 C58.04763762 85.74183687 58.11001947 92.80588587 58.18016052 99.86989021 C58.20661652 102.69208658 58.2275018 105.51428877 58.24816895 108.33653259 C58.26478219 110.07583881 58.28165492 111.81514258 58.29882812 113.55444336 C58.30301254 114.33336441 58.30719696 115.11228546 58.31150818 115.91481018 C58.36312494 120.44929778 58.74945058 124.7645953 59.48828125 129.24023438 C60.41511719 129.37300781 61.34195313 129.50578125 62.296875 129.64257812 C63.49441406 129.81917969 64.69195313 129.99578125 65.92578125 130.17773438 C67.12074219 130.35175781 68.31570313 130.52578125 69.546875 130.70507812 C72.48828125 131.24023438 72.48828125 131.24023438 73.48828125 132.24023438 C73.64021288 134.36143362 73.71011639 136.48878753 73.73828125 138.61523438 C73.7640625 139.77796875 73.78984375 140.94070312 73.81640625 142.13867188 C73.48828125 145.24023438 73.48828125 145.24023438 72.28515625 147.09179688 C65.9293789 151.15396761 54.0350048 150.03155204 46.83984375 148.77929688 C41.80559073 147.13978919 39.33044235 144.50347602 36.48828125 140.24023438 C35.17578125 136.86523438 35.17578125 136.86523438 34.48828125 134.24023438 C29.72252764 135.66996046 25.48931877 137.73131968 21.11328125 140.05273438 C3.34330885 149.21674287 -17.99745261 153.916588 -37.82421875 149.11523438 C-46.34134303 146.18064829 -53.0515573 141.11363835 -57.51171875 133.24023438 C-63.75472829 118.82010646 -63.35233702 99.98128699 -58.51171875 85.24023438 C-54.26004774 74.86933592 -47.65781169 67.94278293 -37.39794922 63.38452148 C-22.91544377 57.64272627 -7.42527947 58.89738665 7.86328125 59.05273438 C10.44921097 59.06780654 13.03514917 59.08149047 15.62109375 59.09375 C21.91034357 59.12655878 28.19927215 59.17655783 34.48828125 59.24023438 C34.35507008 56.52626873 34.21472681 53.81298301 34.0703125 51.09960938 C34.0336145 50.33696777 33.9969165 49.57432617 33.95910645 48.78857422 C33.57202682 41.70291959 32.38365258 35.59358365 28.86328125 29.36523438 C20.27575487 21.68165814 9.23190271 22.04772018 -1.63671875 22.05273438 C-2.90104736 22.05136475 -4.16537598 22.04999512 -5.46801758 22.04858398 C-15.97706147 22.10124949 -26.37767428 22.71655779 -36.85009766 23.61645508 C-37.9591748 23.71015381 -39.06825195 23.80385254 -40.2109375 23.90039062 C-41.67793091 24.03392944 -41.67793091 24.03392944 -43.17456055 24.17016602 C-45.51171875 24.24023438 -45.51171875 24.24023438 -47.51171875 23.24023438 C-49.41475121 18.05975712 -49.70458207 13.73683894 -49.51171875 8.24023438 C-41.79680493 3.4799684 -33.35838863 2.42665125 -24.51171875 1.24023438 C-23.43374023 1.09448975 -23.43374023 1.09448975 -22.33398438 0.94580078 C-14.90861952 0.07324208 -7.46652205 0.01961433 0 0 Z M-31.88671875 86.12304688 C-38.58723475 94.85304609 -38.55890332 105.73697311 -37.51171875 116.24023438 C-36.39279529 120.27635115 -34.63930428 123.03210703 -31.76171875 126.11523438 C-20.74707459 131.62255646 -7.88640829 129.57020867 3.48828125 126.24023438 C14.40171631 122.5437483 24.33927014 117.77605862 34.48828125 112.24023438 C34.48828125 101.02023438 34.48828125 89.80023438 34.48828125 78.24023438 C27.87166838 78.17099075 21.25633627 78.11136847 14.63964844 78.07543945 C12.39351111 78.06044586 10.14740259 78.04004417 7.90136719 78.01391602 C4.6542241 77.97711506 1.4074714 77.96041322 -1.83984375 77.94726562 C-2.82784973 77.93178177 -3.81585571 77.91629791 -4.83380127 77.90034485 C-14.54608268 77.89805263 -24.74072852 78.94728169 -31.88671875 86.12304688 Z " fill="#0069B3" transform="translate(658.51171875,47.759765625)"/>
<path d="M0 0 C12.47352305 9.90710984 18.42054532 23.87616608 20.69824219 39.30126953 C21.2919265 44.61080547 21.47924848 49.91067342 21.5625 55.25 C21.58948975 56.32161377 21.61647949 57.39322754 21.64428711 58.49731445 C21.60210917 66.94562232 21.60210917 66.94562232 18.65234375 70.671875 C14.24439979 74.54099813 10.15833958 74.13821633 4.58129883 74.11352539 C3.29317039 74.11374443 3.29317039 74.11374443 1.97901917 74.1139679 C-0.8616691 74.11327079 -3.70229193 74.10548783 -6.54296875 74.09765625 C-8.51166244 74.09579135 -10.48035659 74.09436779 -12.4490509 74.09336853 C-17.63253051 74.08954901 -22.81598214 74.07972352 -27.99945068 74.06866455 C-33.2880414 74.0584383 -38.57663663 74.0538683 -43.86523438 74.04882812 C-54.24350188 74.03810077 -64.62174862 74.0210311 -75 74 C-74.54521228 77.36823727 -74.08014202 80.73497914 -73.61328125 84.1015625 C-73.48538208 85.04974854 -73.35748291 85.99793457 -73.22570801 86.97485352 C-71.84470048 96.85882964 -69.9354847 106.26128213 -62 113 C-48.2554757 122.60606314 -28.64545424 119.1827106 -13.0625 117.5 C-10.36632217 117.21417254 -7.66966274 116.93429191 -4.97265625 116.65625 C-3.21320679 116.46772461 -3.21320679 116.46772461 -1.41821289 116.27539062 C8.21002871 115.49968485 8.21002871 115.49968485 10.875 117.1875 C13.46694489 121.36341121 13.35431735 126.21671577 13 131 C7.97734345 137.79732853 -5.72769584 138.8533873 -13.71386719 140.12133789 C-35.64583487 143.05142491 -60.88761819 144.06404467 -79.33203125 130.25390625 C-92.0657993 119.75857835 -97.08967825 103.8796223 -98.78833008 87.90869141 C-99.21487285 82.04729513 -99.22524588 76.17550954 -99.24023438 70.30126953 C-99.24986211 68.03249316 -99.28093054 65.76465568 -99.3125 63.49609375 C-99.46622327 42.30083318 -95.39570723 19.74560967 -80 4 C-59.87811831 -13.15938668 -22.04976829 -15.16155545 0 0 Z M-66 23 C-72.02289354 31.96589834 -75 43.19511006 -75 54 C-51.24 54 -27.48 54 -3 54 C-4.69187616 33.48316649 -4.69187616 33.48316649 -16 18 C-30.9209397 8.13103201 -54.14821241 8.67909 -66 23 Z " fill="#0069B3" transform="translate(1012,57)"/>
<path d="M0 0 C9.31093652 7.81804375 12.70880644 18.7151683 13.7355957 30.44702148 C13.85526561 31.73537604 13.85526561 31.73537604 13.9773531 33.04975796 C14.85569944 43.41116872 14.8323923 53.76941888 14.79296875 64.16015625 C14.79177275 66.27672802 14.79132467 68.39330034 14.7915802 70.50987244 C14.79003254 74.89732287 14.78186738 79.2846897 14.76831055 83.67211914 C14.75114347 89.29870567 14.74750222 94.92520249 14.74825573 100.55181217 C14.74798451 104.90027219 14.74251398 109.24871256 14.73525429 113.59716606 C14.73207431 115.67404469 14.73010178 117.75092554 14.72936058 119.82780647 C14.72720001 122.71084572 14.71846713 125.59378812 14.70776367 128.47680664 C14.70821686 129.33227081 14.70867004 130.18773499 14.70913696 131.06912231 C14.69098663 134.40121987 14.62354569 137.12936294 13.5625 140.3125 C10.0264604 142.0805198 5.95678745 141.49714913 2.0625 141.5 C1.18207031 141.51224609 0.30164063 141.52449219 -0.60546875 141.53710938 C-1.44722656 141.53904297 -2.28898437 141.54097656 -3.15625 141.54296875 C-3.92904297 141.54707764 -4.70183594 141.55118652 -5.49804688 141.55541992 C-7.4375 141.3125 -7.4375 141.3125 -9.4375 139.3125 C-9.69083309 137.47571754 -9.69083309 137.47571754 -9.69578552 135.20449829 C-9.70261353 134.34401886 -9.70944153 133.48353943 -9.71647644 132.59698486 C-9.71392349 131.65055115 -9.71137054 130.70411743 -9.70874023 129.72900391 C-9.71396698 128.73361603 -9.71919373 127.73822815 -9.72457886 126.712677 C-9.73484232 124.54428312 -9.74060333 122.37586443 -9.74246025 120.20744705 C-9.74611638 116.76776872 -9.76282664 113.3283807 -9.78321838 109.88876343 C-9.83867497 100.10639877 -9.86919613 90.32398951 -9.89379883 80.54150391 C-9.90974778 74.56092652 -9.94005476 68.58055093 -9.97856331 62.60007858 C-9.99016094 60.32690971 -9.9961432 58.05370459 -9.99624443 55.78050613 C-9.2771979 37.20553901 -9.2771979 37.20553901 -15.5625 20.25 C-23.26131527 15.06166797 -30.89927669 14.30727454 -39.859375 15.93359375 C-52.60157213 18.81210214 -64.92310558 23.52500605 -76.59313965 29.3828125 C-77.67318394 29.92446045 -77.67318394 29.92446045 -78.7750473 30.47705078 C-79.32365669 30.75274902 -79.87226608 31.02844727 -80.4375 31.3125 C-80.43988835 31.86118398 -80.44227671 32.40986795 -80.44473743 32.97517872 C-80.5038503 46.32033441 -80.5795659 59.66530672 -80.67321491 73.0102663 C-80.71799901 79.46378145 -80.75723739 85.91723229 -80.78393555 92.37084961 C-80.80988828 98.59549707 -80.8502336 104.81989811 -80.90068626 111.04439354 C-80.91740942 113.42267995 -80.92888962 115.80100903 -80.93511391 118.17934608 C-80.94469573 121.50304813 -80.97268428 124.8261119 -81.00512695 128.1496582 C-81.00369186 129.1394014 -81.00225677 130.12914459 -81.0007782 131.14888 C-81.01331635 132.05331848 -81.02585449 132.95775696 -81.03877258 133.88960266 C-81.04338155 134.67589208 -81.04799051 135.46218149 -81.05273914 136.27229786 C-81.53574087 138.83342416 -82.40568779 139.72809712 -84.4375 141.3125 C-86.39868164 141.66894531 -86.39868164 141.66894531 -88.59765625 141.640625 C-89.7877832 141.63289063 -89.7877832 141.63289063 -91.00195312 141.625 C-91.82630859 141.604375 -92.65066406 141.58375 -93.5 141.5625 C-94.32822266 141.55734375 -95.15644531 141.5521875 -96.00976562 141.546875 C-102.12805451 141.46722274 -102.12805451 141.46722274 -104.4375 140.3125 C-104.46082793 121.68488885 -104.47847865 103.05728065 -104.48931217 84.42965794 C-104.49447536 75.78114395 -104.50151848 67.13263903 -104.51293945 58.48413086 C-104.52288561 50.94885421 -104.52935326 43.41358412 -104.53158849 35.87830108 C-104.53289572 31.88594148 -104.5359823 27.89360064 -104.54323006 23.90124702 C-104.5499892 20.14782902 -104.55211718 16.39443761 -104.55060768 12.6410141 C-104.55088406 11.25947106 -104.55288981 9.87792719 -104.55670547 8.49638939 C-104.56164099 6.61812855 -104.55989796 4.73985362 -104.55775452 2.86158752 C-104.55867631 1.80797814 -104.5595981 0.75436876 -104.56054783 -0.33116817 C-104.4375 -2.6875 -104.4375 -2.6875 -103.4375 -3.6875 C-100.13311091 -3.9651444 -96.81467866 -3.91924988 -93.5 -3.9375 C-92.10104492 -3.9684375 -92.10104492 -3.9684375 -90.67382812 -4 C-89.78244141 -4.00515625 -88.89105469 -4.0103125 -87.97265625 -4.015625 C-86.74107788 -4.02964355 -86.74107788 -4.02964355 -85.48461914 -4.04394531 C-84.80906982 -3.92631836 -84.13352051 -3.80869141 -83.4375 -3.6875 C-81.24755752 -0.40258627 -81.08472661 1.14345639 -80.8125 5 C-80.73773438 5.99386719 -80.66296875 6.98773438 -80.5859375 8.01171875 C-80.53695312 8.77097656 -80.48796875 9.53023437 -80.4375 10.3125 C-79.8798999 10.00546143 -79.3222998 9.69842285 -78.74780273 9.38208008 C-55.70601092 -3.22167353 -24.7877692 -16.63328812 0 0 Z " fill="#0069B3" transform="translate(104.4375,54.6875)"/>
<path d="M0 0 C3.60389664 -0.11601004 7.20731467 -0.18718408 10.8125 -0.25 C11.83666016 -0.28351562 12.86082031 -0.31703125 13.91601562 -0.3515625 C14.89892578 -0.36445312 15.88183594 -0.37734375 16.89453125 -0.390625 C17.80050049 -0.41157227 18.70646973 -0.43251953 19.63989258 -0.45410156 C22 0 22 0 23.50616455 1.66079712 C25.21193671 4.33187253 26.21262356 6.88943698 27.26147461 9.88134766 C27.89432625 11.66993698 27.89432625 11.66993698 28.53996277 13.49465942 C28.9942228 14.80108087 29.4483459 16.10754993 29.90234375 17.4140625 C30.38087429 18.77454105 30.86003841 20.1347969 31.33979797 21.49484253 C32.61713915 25.12129588 33.88594098 28.7506822 35.15309143 32.38070679 C36.45802832 36.11429809 37.77080907 39.84512799 39.08300781 43.57617188 C41.13769342 49.42089379 43.18836018 55.26700791 45.23583984 61.11425781 C47.50667023 67.59838915 49.78859946 74.07851034 52.08203125 80.5546875 C52.36614365 81.35717926 52.65025604 82.15967102 52.94297791 82.98648071 C53.46891554 84.47170752 53.9949268 85.95690826 54.52102661 87.44207764 C56.3568713 92.62474396 58.18837768 97.80880155 60 103 C60.47276367 104.34384766 60.47276367 104.34384766 60.95507812 105.71484375 C61.37176758 106.92333984 61.37176758 106.92333984 61.796875 108.15625 C62.03245117 108.83494141 62.26802734 109.51363281 62.51074219 110.21289062 C63 112 63 112 63 115 C63.66 115 64.32 115 65 115 C65.24210205 113.77337646 65.4842041 112.54675293 65.73364258 111.28295898 C67.09528688 105.17796266 69.17475005 99.36146899 71.26171875 93.47265625 C71.68485352 92.26592758 72.10798828 91.05919891 72.54394531 89.81590271 C73.68360143 86.56656565 74.82972108 83.31954539 75.97738266 80.07302856 C76.92775198 77.38228359 77.87450754 74.69027331 78.82124043 71.99824715 C81.65168696 63.95021804 84.49367639 55.90629893 87.34033203 47.86399078 C87.97523533 46.06997629 88.60969695 44.27580551 89.24414062 42.48162842 C91.71824738 35.48524812 94.19950219 28.49145169 96.6875 21.5 C97.00069183 20.61804962 97.31388367 19.73609924 97.63656616 18.8274231 C98.50882228 16.37352379 99.38460272 13.92091572 100.26171875 11.46875 C100.51284424 10.7611705 100.76396973 10.053591 101.02270508 9.3245697 C102.18734574 6.08199217 103.45396017 3.09207966 105 0 C112.59 0 120.18 0 128 0 C127.32512121 4.72415156 126.87374829 7.87835745 125.27954102 12.11572266 C124.92212326 13.07623535 124.56470551 14.03674805 124.19645691 15.02636719 C123.80291519 16.06180664 123.40937347 17.09724609 123.00390625 18.1640625 C122.37897026 19.8339624 122.37897026 19.8339624 121.7414093 21.53759766 C120.59510527 24.59619202 119.4424808 27.65231086 118.28688812 30.70740509 C117.06611908 33.93901593 115.85310724 37.17353666 114.63916016 40.40771484 C112.54961119 45.97143829 110.4547387 51.53313477 108.35693359 57.09375 C105.15734138 65.57576809 101.97279046 74.06339544 98.7895565 82.55156326 C96.44120526 88.81174138 94.08913457 95.07052294 91.73731613 101.32939911 C90.87777042 103.61762477 90.01891477 105.90610847 89.16018677 108.19464111 C87.79943487 111.82032303 86.43581109 115.44491292 85.07008934 119.06872559 C84.56851095 120.40087168 84.06783799 121.73335911 83.56817055 123.06622314 C75.88407707 143.55796147 75.88407707 143.55796147 73 145 C69.86149491 145.31468702 66.7148606 145.32396841 63.5625 145.375 C62.69044922 145.41238281 61.81839844 145.44976562 60.91992188 145.48828125 C60.08138672 145.49988281 59.24285156 145.51148438 58.37890625 145.5234375 C57.6113501 145.54325684 56.84379395 145.56307617 56.05297852 145.58349609 C54 145 54 145 52.42871094 142.97192383 C50.6894957 139.3541065 49.18901701 135.67429555 47.76171875 131.92578125 C47.29197632 130.70844803 47.29197632 130.70844803 46.81274414 129.46652222 C45.7662707 126.7503062 44.72681216 124.03146343 43.6875 121.3125 C42.94338507 119.37595424 42.19899336 117.43951481 41.4543457 115.50317383 C37.07659172 104.10408132 32.73800339 92.69007616 28.40625 81.2734375 C28.17071348 80.65266579 27.93517696 80.03189407 27.69250298 79.3923111 C25.07493699 72.49246072 22.46150048 65.59106995 19.85375977 58.6875 C15.9364749 48.32380465 12.01778513 37.963348 7.93359375 27.6640625 C7.49339149 26.54959496 7.49339149 26.54959496 7.04429626 25.41261292 C5.76025264 22.16396935 4.46555563 18.92125149 3.1472168 15.6862793 C0.97666479 10.22411195 -0.62462011 5.90012775 0 0 Z " fill="#0069B3" transform="translate(291,51)"/>
<path d="M0 0 C1 1 1 1 1.11352539 4.78540039 C1.11336622 6.47282729 1.10766917 8.16025905 1.09765625 9.84765625 C1.0962413 10.7340831 1.09482635 11.62050995 1.09336853 12.53379822 C1.08775215 15.37673254 1.07519691 18.21958931 1.0625 21.0625 C1.05748711 22.98502491 1.05292384 24.90755104 1.04882812 26.83007812 C1.03777741 31.55341549 1.02050183 36.27669458 1 41 C2.62010986 40.98428955 2.62010986 40.98428955 4.27294922 40.96826172 C8.27226459 40.93211806 12.27156546 40.90912016 16.27099609 40.89013672 C18.00344265 40.88006624 19.73587216 40.86640911 21.46826172 40.84912109 C23.95544639 40.82491838 26.44240675 40.81352761 28.9296875 40.8046875 C29.70682098 40.79436493 30.48395447 40.78404236 31.28463745 40.77340698 C33.19125493 40.77300729 35.09731036 40.8776786 37 41 C39 43 39 43 39.23046875 46.40625 C39.22647854 47.77090267 39.21172843 49.1355566 39.1875 50.5 C39.1865332 51.53447266 39.1865332 51.53447266 39.18554688 52.58984375 C39.14055525 57.71888951 39.14055525 57.71888951 38 60 C25.79 60 13.58 60 1 60 C1.0855596 72.39605498 1.17934019 84.79197334 1.28752708 97.18785191 C1.33743726 102.94397644 1.3837679 108.70008309 1.421875 114.45629883 C1.45879429 120.01308857 1.50517253 125.56972677 1.55806351 131.12638664 C1.57657211 133.24459101 1.59169307 135.36282782 1.60334396 137.48108101 C1.62026677 140.45181872 1.64931668 143.42221204 1.68115234 146.39282227 C1.68331253 147.26532623 1.68547272 148.1378302 1.68769836 149.03677368 C1.7560675 154.04270784 2.19990597 158.30209008 4 163 C8.37367023 165.36878529 12.83638241 165.23066273 17.69921875 165.08984375 C19.16991883 165.06944103 20.64062208 165.04926538 22.11132812 165.02929688 C24.4090798 164.985664 26.70660736 164.93705499 29.00415039 164.88354492 C31.23583186 164.83534497 33.46720725 164.80544164 35.69921875 164.77734375 C36.73051155 164.7447068 36.73051155 164.7447068 37.78263855 164.71141052 C40.66341758 164.68138473 42.52963477 164.66239576 44.91333008 166.37329102 C47.57776792 170.36186647 47.34270083 175.37353883 47 180 C44.5835317 183.58916615 40.72223394 184.15331851 36.75 185.125 C36.10675781 185.29386719 35.46351563 185.46273437 34.80078125 185.63671875 C21.06603889 189.14640141 1.7614482 191.38565788 -11 184 C-16.1790243 180.91017871 -18.94649281 176.56026562 -21 171 C-21.75320814 167.73690757 -22.12422312 164.72009209 -22.12025452 161.3745575 C-22.12162918 160.47578384 -22.12300385 159.57701019 -22.12442017 158.65100098 C-22.12082489 157.67779907 -22.11722961 156.70459717 -22.11352539 155.7019043 C-22.11367142 154.66729568 -22.11381744 153.63268707 -22.1139679 152.56672668 C-22.11327214 149.15253593 -22.10549544 145.73839996 -22.09765625 142.32421875 C-22.09579088 139.95481903 -22.09436754 137.58541892 -22.09336853 135.21601868 C-22.08955276 128.98370293 -22.07973047 122.75141053 -22.06866455 116.519104 C-22.05843024 110.15792151 -22.05386658 103.79673523 -22.04882812 97.43554688 C-22.03810739 84.957021 -22.02104222 72.47851244 -22 60 C-22.60062256 60.00523682 -23.20124512 60.01047363 -23.82006836 60.01586914 C-26.52586838 60.03658014 -29.23165177 60.04964125 -31.9375 60.0625 C-32.88302734 60.07087891 -33.82855469 60.07925781 -34.80273438 60.08789062 C-36.15141602 60.09272461 -36.15141602 60.09272461 -37.52734375 60.09765625 C-38.77632446 60.10551147 -38.77632446 60.10551147 -40.05053711 60.11352539 C-42 60 -42 60 -43 59 C-43.09986975 56.15664952 -43.13877881 53.34302837 -43.125 50.5 C-43.12886719 49.70207031 -43.13273437 48.90414062 -43.13671875 48.08203125 C-43.12660767 42.12660767 -43.12660767 42.12660767 -42 41 C-40.5112814 40.91330568 -39.018555 40.89296506 -37.52734375 40.90234375 C-36.62822266 40.90556641 -35.72910156 40.90878906 -34.80273438 40.91210938 C-33.38444336 40.92467773 -33.38444336 40.92467773 -31.9375 40.9375 C-30.98810547 40.94201172 -30.03871094 40.94652344 -29.06054688 40.95117188 C-26.70696935 40.9629989 -24.35351523 40.97947975 -22 41 C-22.02094727 39.95545654 -22.04189453 38.91091309 -22.06347656 37.8347168 C-22.13586149 33.96034446 -22.18179362 30.0860319 -22.21972656 26.21118164 C-22.23984565 24.53399608 -22.26714451 22.85688069 -22.30175781 21.17993164 C-22.35026569 18.769518 -22.37296464 16.36003128 -22.390625 13.94921875 C-22.41127014 13.19912033 -22.43191528 12.44902191 -22.45318604 11.67619324 C-22.4554301 6.47313697 -22.4554301 6.47313697 -20.13500977 4.0625 C-13.89768825 0.95846075 -6.94207955 -0.60365909 0 0 Z " fill="#0069B3" transform="translate(539,10)"/>
<path d="M0 0 C1.65852183 4.43858505 2.40587682 8.46592758 2.75 13.1875 C2.84796875 14.39792969 2.9459375 15.60835937 3.046875 16.85546875 C3 20 3 20 1 23 C-1.04931641 23.7644043 -1.04931641 23.7644043 -3.6015625 24.32421875 C-4.55595215 24.5444873 -5.5103418 24.76475586 -6.49365234 24.99169922 C-7.52699707 25.22131348 -8.5603418 25.45092773 -9.625 25.6875 C-19.79847879 28.06931826 -29.63582872 31.0405124 -39.50634766 34.4597168 C-40.4607373 34.79011963 -41.41512695 35.12052246 -42.3984375 35.4609375 C-43.66179932 35.90638916 -43.66179932 35.90638916 -44.95068359 36.36083984 C-47 37 -47 37 -49 37 C-48.99815641 37.5547595 -48.99631283 38.109519 -48.99441338 38.6810894 C-48.9502817 52.16762155 -48.91729411 65.65414108 -48.89637566 79.1407299 C-48.8859208 85.66269488 -48.87173063 92.1846079 -48.84912109 98.70654297 C-48.82745331 104.99589679 -48.81544421 111.28520052 -48.81024551 117.57458878 C-48.80653883 119.97886062 -48.79930103 122.3831296 -48.78853989 124.78738022 C-48.77410559 128.14461021 -48.77201867 131.50163089 -48.77294922 134.85888672 C-48.76575867 135.86157593 -48.75856812 136.86426514 -48.75115967 137.89733887 C-48.753909 138.80881683 -48.75665833 139.7202948 -48.75949097 140.65939331 C-48.75764738 141.45397886 -48.75580379 142.24856441 -48.75390434 143.06722832 C-49 145 -49 145 -51 147 C-52.93945312 147.25878906 -52.93945312 147.25878906 -55.28125 147.265625 C-56.12300781 147.26820313 -56.96476563 147.27078125 -57.83203125 147.2734375 C-58.71246094 147.26570312 -59.59289062 147.25796875 -60.5 147.25 C-61.38042969 147.25773438 -62.26085937 147.26546875 -63.16796875 147.2734375 C-64.00972656 147.27085937 -64.85148438 147.26828125 -65.71875 147.265625 C-66.49154297 147.26336914 -67.26433594 147.26111328 -68.06054688 147.25878906 C-70 147 -70 147 -72 145 C-72.24888897 142.53903103 -72.24888897 142.53903103 -72.24723816 139.37535095 C-72.25143265 138.17923691 -72.25562714 136.98312286 -72.25994873 135.75076294 C-72.25432922 134.43171967 -72.24870972 133.11267639 -72.24291992 131.75366211 C-72.24399239 130.35599173 -72.24593055 128.95832179 -72.24867249 127.56065369 C-72.25352914 123.75912961 -72.24585532 119.9577225 -72.23571944 116.15621257 C-72.22695373 112.18483657 -72.22869609 108.21346439 -72.2290802 104.24208069 C-72.22814298 97.57306961 -72.21945066 90.90410397 -72.20581055 84.23510742 C-72.19007798 76.5143119 -72.18481263 68.79356615 -72.1855461 61.07275575 C-72.18615552 53.65744517 -72.18105839 46.24215087 -72.17275429 38.82684517 C-72.16921515 35.66536901 -72.16739014 32.50389862 -72.16686058 29.34242058 C-72.16585925 25.62343702 -72.15977994 21.90449557 -72.14969444 18.18552589 C-72.1467629 16.81688571 -72.14554539 15.44824068 -72.14612198 14.07959747 C-72.14660939 12.21894892 -72.14036292 10.35830214 -72.13371277 8.49766541 C-72.13203692 7.45402801 -72.13036108 6.41039061 -72.12863445 5.33512783 C-72 3 -72 3 -71 2 C-69.45044441 1.90100477 -67.89646327 1.86920476 -66.34375 1.8671875 C-64.93416016 1.86525391 -64.93416016 1.86525391 -63.49609375 1.86328125 C-62.50738281 1.86714844 -61.51867187 1.87101562 -60.5 1.875 C-59.01693359 1.86919922 -59.01693359 1.86919922 -57.50390625 1.86328125 C-56.56417969 1.86457031 -55.62445312 1.86585937 -54.65625 1.8671875 C-53.78806641 1.86831543 -52.91988281 1.86944336 -52.02539062 1.87060547 C-50 2 -50 2 -49 3 C-48.76346477 5.52596259 -48.57826308 8.03107207 -48.4375 10.5625 C-48.39431641 11.27341797 -48.35113281 11.98433594 -48.30664062 12.71679688 C-48.20028223 14.47761912 -48.09961154 16.2387832 -48 18 C-47.22140625 17.5153125 -46.4428125 17.030625 -45.640625 16.53125 C-38.51342488 12.26149878 -31.34623946 8.7066095 -23.625 5.625 C-22.79387695 5.29177734 -21.96275391 4.95855469 -21.10644531 4.61523438 C-14.18484854 1.9196585 -7.53271543 -0.37663577 0 0 Z " fill="#0069B3" transform="translate(898,49)"/>
<path d="M0 0 C2.06298828 -0.34057617 2.06298828 -0.34057617 4.5703125 -0.29296875 C5.46621094 -0.28330078 6.36210937 -0.27363281 7.28515625 -0.26367188 C8.69087891 -0.2259668 8.69087891 -0.2259668 10.125 -0.1875 C11.06988281 -0.17396484 12.01476562 -0.16042969 12.98828125 -0.14648438 C15.32608779 -0.11106306 17.66276237 -0.06167271 20 0 C21.97492179 3.30760992 22.24933536 5.79045255 22.24723816 9.6171875 C22.25143265 10.76123047 22.25562714 11.90527344 22.25994873 13.08398438 C22.25151947 14.96053711 22.25151947 14.96053711 22.24291992 16.875 C22.24399315 18.20898532 22.24593243 19.54297019 22.24867249 20.87695312 C22.25351753 24.4967502 22.24586933 28.11642389 22.23571944 31.73620605 C22.22693243 35.52465676 22.22869652 39.31310368 22.2290802 43.1015625 C22.2281438 49.46356265 22.21946319 55.8255151 22.20581055 62.1875 C22.1900853 69.54246217 22.18481247 76.89737209 22.1855461 84.25234985 C22.18615656 91.32807134 22.18104947 98.40377581 22.17275429 105.47949219 C22.1692243 108.49056125 22.16739144 111.50162429 22.16686058 114.51269531 C22.16585567 118.0585318 22.15974687 121.60432446 22.14969444 125.15014648 C22.14538236 127.0720983 22.14594074 128.9940591 22.14663696 130.91601562 C22.14237198 132.06005859 22.13810699 133.20410156 22.13371277 134.3828125 C22.13203692 135.37684082 22.13036108 136.37086914 22.12863445 137.39501953 C22.01093582 139.77853845 21.80823562 141.75682951 21 144 C17.59308509 145.70345745 13.81732483 145.22662366 10.0625 145.25 C8.8259668 145.2809375 8.8259668 145.2809375 7.56445312 145.3125 C6.77103516 145.31765625 5.97761719 145.3228125 5.16015625 145.328125 C4.43449463 145.3374707 3.70883301 145.34681641 2.96118164 145.35644531 C0.34469749 144.88089859 -0.38774149 144.10486711 -2 142 C-2.37473011 139.46842194 -2.37473011 139.46842194 -2.3742218 136.38244629 C-2.38123611 135.21309036 -2.38825043 134.04373444 -2.39547729 132.83894348 C-2.38783356 131.55468979 -2.38018982 130.2704361 -2.37231445 128.94726562 C-2.3747422 127.58224714 -2.37846136 126.21723042 -2.38337708 124.85221863 C-2.39279211 121.1435407 -2.38335567 117.4351264 -2.37004495 113.72646904 C-2.35873913 109.84812245 -2.36283728 105.969789 -2.36479187 102.09143066 C-2.36567512 95.57799974 -2.35458797 89.06467283 -2.33618164 82.55126953 C-2.31501351 75.01734592 -2.31150394 67.48357472 -2.3177436 59.9496274 C-2.32343541 52.70676947 -2.31779376 45.46396529 -2.30657005 38.22111511 C-2.30192164 35.13664253 -2.30105126 32.0522028 -2.3031559 28.96772766 C-2.30503754 25.33650266 -2.29694456 21.7054331 -2.2810955 18.07424355 C-2.27481888 16.10319116 -2.27836321 14.13211523 -2.28216553 12.16105652 C-2.27508072 10.99170059 -2.26799591 9.82234467 -2.26069641 8.61755371 C-2.25864354 7.59918175 -2.25659067 6.58080978 -2.25447559 5.53157806 C-2 3 -2 3 0 0 Z " fill="#0069B3" transform="translate(446,51)"/>
<path d="M0 0 C1.23157837 0.00616333 1.23157837 0.00616333 2.48803711 0.01245117 C3.37942383 0.01438477 4.27081055 0.01631836 5.18920898 0.01831055 C6.1218457 0.03055664 7.05448242 0.04280273 8.01538086 0.05541992 C9.42013672 0.05638672 9.42013672 0.05638672 10.85327148 0.05737305 C17.81268862 0.10272768 17.81268862 0.10272768 18.95288086 1.24291992 C19.05370724 3.07324201 19.08365009 4.90749061 19.08659363 6.74058533 C19.09085861 7.93387955 19.0951236 9.12717377 19.09951782 10.35662842 C19.09916826 11.69104007 19.0987067 13.0254517 19.09814453 14.35986328 C19.10113446 15.75576366 19.1045366 17.1516632 19.10832214 18.54756165 C19.1171833 22.34917277 19.11950114 26.1507614 19.12013793 29.95238185 C19.12108529 33.12103947 19.12476157 36.28969179 19.12831002 39.45834738 C19.13646263 46.93138143 19.13889353 54.40440342 19.13818359 61.87744141 C19.13758258 69.59764566 19.14813714 77.31778009 19.16392726 85.03796667 C19.17698344 91.65622569 19.1823683 98.27446183 19.18172818 104.89273363 C19.18147263 108.84991536 19.18435533 112.80703507 19.19490623 116.76420403 C19.204555 120.48483951 19.20468872 124.2053533 19.1973896 127.92599297 C19.19583763 129.94856222 19.20421293 131.97113137 19.21282959 133.99368286 C19.2086351 135.18979691 19.20444061 136.38591095 19.20011902 137.61827087 C19.20066379 138.6622853 19.20120855 139.70629972 19.20176983 140.78195095 C18.95288086 143.24291992 18.95288086 143.24291992 16.95288086 145.24291992 C15.12109375 145.50170898 15.12109375 145.50170898 12.92553711 145.50854492 C12.1334082 145.51112305 11.3412793 145.51370117 10.52514648 145.51635742 C9.69692383 145.50862305 8.86870117 145.50088867 8.01538086 145.49291992 C7.19102539 145.5006543 6.36666992 145.50838867 5.51733398 145.51635742 C4.72391602 145.5137793 3.93049805 145.51120117 3.11303711 145.50854492 C2.38737549 145.50628906 1.66171387 145.5040332 0.9140625 145.50170898 C-1.04711914 145.24291992 -1.04711914 145.24291992 -4.04711914 143.24291992 C-4.42184925 140.80036163 -4.42184925 140.80036163 -4.42134094 137.66296387 C-4.42835526 136.47670914 -4.43536957 135.29045441 -4.44259644 134.06825256 C-4.4349527 132.76013107 -4.42730896 131.45200958 -4.41943359 130.10424805 C-4.42186053 128.7180504 -4.4255789 127.3318545 -4.43049622 125.94566345 C-4.43992237 122.1750137 -4.43046551 118.40462273 -4.41716409 114.63399315 C-4.4058707 110.69377973 -4.40995545 106.75357944 -4.41191101 102.81335449 C-4.41279466 96.19559486 -4.40169888 89.57793754 -4.38330078 82.96020508 C-4.36213204 75.30188299 -4.35862284 67.64371081 -4.36486274 59.98536539 C-4.37055143 52.62771017 -4.3649166 45.27010791 -4.35368919 37.91246033 C-4.34903662 34.77692183 -4.34817219 31.64141565 -4.35027504 28.50587463 C-4.3521545 24.81557105 -4.34408063 21.1254207 -4.32821465 17.43515205 C-4.32192692 15.42930695 -4.32548584 13.42343864 -4.32928467 11.41758728 C-4.32219986 10.23133255 -4.31511505 9.04507782 -4.30781555 7.82287598 C-4.30576268 6.78753471 -4.30370981 5.75219345 -4.30159473 4.68547821 C-3.9753058 1.55362685 -3.20935968 0.38083636 0 0 Z " fill="#0069B3" transform="translate(762.047119140625,50.757080078125)"/>
<path d="M0 0 C1.41623216 -0.05447047 2.83308191 -0.09300508 4.25 -0.125 C5.03890625 -0.14820313 5.8278125 -0.17140625 6.640625 -0.1953125 C9.37293312 0.03087195 10.70895885 0.48893503 13 2 C14.37207031 4.43017578 14.37207031 4.43017578 15.578125 7.4453125 C16.01640625 8.52167969 16.4546875 9.59804688 16.90625 10.70703125 C17.3496875 11.83496094 17.793125 12.96289062 18.25 14.125 C18.70890625 15.26066406 19.1678125 16.39632813 19.640625 17.56640625 C20.77267615 20.37294974 21.89182276 23.18396332 23 26 C26.11253368 19.24646061 29.04772327 12.48349589 31.69140625 5.53125 C33.15074244 2.70841462 34.22366185 1.51989315 37 0 C39.32421875 -0.328125 39.32421875 -0.328125 41.6875 -0.25 C42.47511719 -0.23453125 43.26273437 -0.2190625 44.07421875 -0.203125 C46 0 46 0 47 1 C47.37522057 3.78394988 47.69307714 6.55362628 47.97265625 9.34765625 C48.06002548 10.19291367 48.14739471 11.03817108 48.2374115 11.90904236 C48.42192092 13.70533446 48.60419048 15.5018578 48.78442383 17.29858398 C49.05895036 20.02721859 49.34240011 22.75481686 49.62695312 25.48242188 C49.80523012 27.22911137 49.98298071 28.97585469 50.16015625 30.72265625 C50.24451431 31.5313063 50.32887238 32.33995636 50.41578674 33.17311096 C50.90733239 38.14244651 51.07664104 43.0062127 51 48 C47.37 48 43.74 48 40 48 C39.31063195 44.55315976 38.78409084 41.38712047 38.46484375 37.91796875 C38.33432617 36.52094727 38.33432617 36.52094727 38.20117188 35.09570312 C38.0706543 33.65614258 38.0706543 33.65614258 37.9375 32.1875 C37.84662109 31.20845703 37.75574219 30.22941406 37.66210938 29.22070312 C37.43904995 26.81400929 37.21842428 24.40711818 37 22 C36.7733667 22.56509277 36.5467334 23.13018555 36.31323242 23.71240234 C35.2809499 26.27061052 34.23443388 28.82275488 33.1875 31.375 C32.83107422 32.26445312 32.47464844 33.15390625 32.10742188 34.0703125 C31.75615234 34.92109375 31.40488281 35.771875 31.04296875 36.6484375 C30.72352295 37.43395996 30.40407715 38.21948242 30.07495117 39.02880859 C29 41 29 41 26 43 C23.26009592 42.96856707 20.71582146 42.44521663 18 42 C16.66087415 38.87745057 15.32969342 35.75157642 14 32.625 C13.6184375 31.73554688 13.236875 30.84609375 12.84375 29.9296875 C12.4828125 29.07890625 12.121875 28.228125 11.75 27.3515625 C11.41484375 26.56604004 11.0796875 25.78051758 10.734375 24.97119141 C10 23 10 23 10 21 C9.34 21 8.68 21 8 21 C8.01160156 21.85980469 8.02320313 22.71960938 8.03515625 23.60546875 C8.09772856 31.80244111 7.72577341 39.83504917 7 48 C3.04 48 -0.92 48 -5 48 C-4.05058836 36.24345587 -3.08849231 24.48880113 -1.9375 12.75 C-1.85838379 11.9240332 -1.77926758 11.09806641 -1.69775391 10.24707031 C-1.3471108 6.74652006 -0.91154333 3.39666845 0 0 Z " fill="#0069B3" transform="translate(352,258)"/>
<path d="M0 0 C1.8125 1.625 1.8125 1.625 3 3 C3.639375 2.731875 4.27875 2.46375 4.9375 2.1875 C19.85162602 -3.59552846 19.85162602 -3.59552846 27.25 -0.75 C30.67573847 1.43001539 32.50831862 3.1619526 33.56811523 7.1237793 C34.12097918 10.80568441 34.12355889 14.43186171 34.09765625 18.14453125 C34.0962413 18.91431808 34.09482635 19.68410492 34.09336853 20.47721863 C34.08779606 22.92235288 34.07524871 25.36739368 34.0625 27.8125 C34.05748144 29.47591013 34.05291915 31.1393217 34.04882812 32.80273438 C34.03783566 36.86852528 34.0205901 40.93424683 34 45 C31.6739143 45.38063221 29.33944736 45.71269945 27 46 C25.07399577 44.07399577 25.79307254 40.48958135 25.75390625 37.859375 C25.72095041 36.38150488 25.68773908 34.90364044 25.65429688 33.42578125 C25.60699393 31.09102536 25.56260617 28.75628959 25.52319336 26.42138672 C25.48331167 24.17129505 25.43178767 21.92169353 25.37890625 19.671875 C25.3704921 18.97898376 25.36207794 18.28609253 25.35340881 17.57220459 C25.25356811 13.63017329 24.71921484 10.55794499 23 7 C18.02713911 6.63833739 14.75629978 6.87747888 10.21484375 9.015625 C9.42070068 9.38461914 8.62655762 9.75361328 7.80834961 10.13378906 C7.21159424 10.41963867 6.61483887 10.70548828 6 11 C5.96241577 12.53708618 5.96241577 12.53708618 5.92407227 14.10522461 C5.83015516 17.89409676 5.72989683 21.68277881 5.62768555 25.47143555 C5.58427703 27.11364303 5.54260642 28.75589739 5.50268555 30.39819336 C5.4451256 32.75388745 5.38139108 35.10934428 5.31640625 37.46484375 C5.29133751 38.57266457 5.29133751 38.57266457 5.26576233 39.7028656 C5.11387171 44.88612829 5.11387171 44.88612829 4 46 C1 46.125 1 46.125 -2 46 C-3.95786982 44.04213018 -3.20757044 40.28479949 -3.24609375 37.60546875 C-3.27904196 36.07746844 -3.31225344 34.54947379 -3.34570312 33.02148438 C-3.39306715 30.60542842 -3.43746917 28.18939381 -3.47680664 25.77319336 C-3.51659446 23.44620132 -3.56813412 21.11969308 -3.62109375 18.79296875 C-3.6295079 18.07304245 -3.63792206 17.35311615 -3.64659119 16.6113739 C-3.73707696 12.92943792 -3.97751908 10.1341121 -6 7 C-10.97286089 6.63833739 -14.24370022 6.87747888 -18.78515625 9.015625 C-19.57929932 9.38461914 -20.37344238 9.75361328 -21.19165039 10.13378906 C-21.78840576 10.41963867 -22.38516113 10.70548828 -23 11 C-23.02505615 12.02472412 -23.0501123 13.04944824 -23.07592773 14.10522461 C-23.16984484 17.89409676 -23.27010317 21.68277881 -23.37231445 25.47143555 C-23.41572297 27.11364303 -23.45739358 28.75589739 -23.49731445 30.39819336 C-23.5548744 32.75388745 -23.61860892 35.10934428 -23.68359375 37.46484375 C-23.70866249 38.57266457 -23.70866249 38.57266457 -23.73423767 39.7028656 C-23.88612829 44.88612829 -23.88612829 44.88612829 -25 46 C-27.33944736 45.71269945 -29.6739143 45.38063221 -32 45 C-32.02527062 38.60962769 -32.04283317 32.21926817 -32.05493164 25.82885742 C-32.05997308 23.65307127 -32.06680607 21.47728853 -32.07543945 19.30151367 C-32.08751338 16.18146933 -32.09323005 13.06146962 -32.09765625 9.94140625 C-32.10281754 8.96224747 -32.10797882 7.98308868 -32.11329651 6.97425842 C-32.11337204 6.07340012 -32.11344757 5.17254181 -32.11352539 4.24438477 C-32.115746 3.44718521 -32.11796661 2.64998566 -32.12025452 1.82862854 C-32 0 -32 0 -31 -1 C-28.66702567 -1.04092937 -26.33294775 -1.04241723 -24 -1 C-24 0.32 -24 1.64 -24 3 C-23.46890625 2.72285156 -22.9378125 2.44570313 -22.390625 2.16015625 C-21.33101562 1.61681641 -21.33101562 1.61681641 -20.25 1.0625 C-19.55390625 0.70285156 -18.8578125 0.34320313 -18.140625 -0.02734375 C-12.21945599 -2.71780193 -5.85084976 -3.08794849 0 0 Z " fill="#0069B3" transform="translate(808,260)"/>
<path d="M0 0 C6.49773794 6.87995782 7.44490331 13.76897736 7.33203125 22.921875 C6.92971683 29.38926905 5.67015413 34.21673867 0.8125 38.6875 C-5.68363856 44.00252246 -13.03380457 43.52813336 -21 43.4375 C-22.08410156 43.43685547 -23.16820312 43.43621094 -24.28515625 43.43554688 C-28.74238695 43.41075387 -32.52620393 43.33719902 -36.875 42.25 C-36.875 27.73 -36.875 13.21 -36.875 -1.75 C-24.75036395 -5.79154535 -11.32663244 -6.89447192 0 0 Z M-24.875 5.25 C-24.875 14.82 -24.875 24.39 -24.875 34.25 C-13.61816054 35.27899151 -13.61816054 35.27899151 -7.875 31.25 C-4.09879848 26.04144617 -4.19398688 20.43433536 -4.875 14.25 C-6.39247448 10.00107147 -7.98401681 7.56027127 -11.875 5.25 C-16.34754497 3.75915168 -20.40245503 3.75915168 -24.875 5.25 Z " fill="#0069B3" transform="translate(502.875,262.75)"/>
<path d="M0 0 C2.37173132 2.02573757 2.98132498 2.94397495 4 6 C4.0853013 8.87694671 4.11585645 11.72900182 4.09765625 14.60546875 C4.0962413 15.44467361 4.09482635 16.28387848 4.09336853 17.14851379 C4.08777215 19.82821216 4.07522035 22.5078269 4.0625 25.1875 C4.05748453 27.00455608 4.05292171 28.82161348 4.04882812 30.63867188 C4.03780391 35.09248013 4.02054178 39.54622589 4 44 C3.27554688 43.90460938 2.55109375 43.80921875 1.8046875 43.7109375 C-3.78358457 43.07014897 -7.69193309 42.88745038 -13 45 C-19.58065427 45.61493978 -26.5374466 46.20196416 -32 42 C-35.71325444 37.89587667 -36.64422858 34.55970633 -36.390625 29.1796875 C-35.60724462 24.80842498 -33.18655274 22.04272816 -29.9375 19.1875 C-26.84383938 17.29138543 -24.31494539 16.87719897 -20.76953125 16.90234375 C-19.56586914 16.90717773 -19.56586914 16.90717773 -18.33789062 16.91210938 C-17.50451172 16.92048828 -16.67113281 16.92886719 -15.8125 16.9375 C-14.96751953 16.94201172 -14.12253906 16.94652344 -13.25195312 16.95117188 C-11.16793845 16.96294597 -9.08396023 16.9808811 -7 17 C-7.28151087 15.68528432 -7.57553339 14.37324233 -7.875 13.0625 C-8.03742188 12.33160156 -8.19984375 11.60070312 -8.3671875 10.84765625 C-8.82961523 8.79299706 -8.82961523 8.79299706 -11 8 C-17.38628514 7.58953933 -23.67124121 8.18338596 -30 9 C-31.94566951 5.52452927 -32.07637127 3.87493656 -31 0 C-20.68551189 -3.77359321 -10.04230696 -4.75688224 0 0 Z M-14.3125 24.25 C-16.03919922 24.31960938 -16.03919922 24.31960938 -17.80078125 24.390625 C-21.50388191 25.09597751 -22.77234894 26.00400279 -25 29 C-24.83849795 32.39154295 -24.41703243 33.58296757 -22 36 C-16.71545462 36.71869817 -11.93117852 36.0230476 -7 34 C-7 30.7 -7 27.4 -7 24 C-9.44195017 24 -11.87388111 24.13064602 -14.3125 24.25 Z " fill="#0069B3" transform="translate(331,261)"/>
<path d="M0 0 C3.01787717 2.90280957 4.25951946 5.02979606 4.45410156 9.14770508 C4.45347284 10.77178485 4.43114247 12.39595685 4.390625 14.01953125 C4.38496521 14.87810226 4.37930542 15.73667328 4.37347412 16.6212616 C4.35115787 19.3522516 4.30097167 22.08190939 4.25 24.8125 C4.2299288 26.66860079 4.21167911 28.52472223 4.1953125 30.38085938 C4.15130881 34.92108296 4.08231521 39.46031593 4 44 C3.27554688 43.90460938 2.55109375 43.80921875 1.8046875 43.7109375 C-3.78358457 43.07014897 -7.69193309 42.88745038 -13 45 C-19.64975694 45.62139719 -26.40539632 46.12233955 -32 42 C-34.94265179 38.75293595 -35.918002 36.08647349 -36.25 31.6875 C-35.89073825 26.38838914 -34.40956653 23.33728107 -30.5625 19.6875 C-27.01206539 17.34940892 -24.09117892 16.87052137 -19.890625 16.90234375 C-19.13652344 16.90556641 -18.38242187 16.90878906 -17.60546875 16.91210938 C-16.82816406 16.92048828 -16.05085938 16.92886719 -15.25 16.9375 C-14.45722656 16.94201172 -13.66445313 16.94652344 -12.84765625 16.95117188 C-10.89840492 16.96291435 -8.94919262 16.98084854 -7 17 C-7.28151087 15.68528432 -7.57553339 14.37324233 -7.875 13.0625 C-8.03742188 12.33160156 -8.19984375 11.60070312 -8.3671875 10.84765625 C-8.82961523 8.79299706 -8.82961523 8.79299706 -11 8 C-17.38628514 7.58953933 -23.67124121 8.18338596 -30 9 C-31.17271259 6.51660864 -32 4.57932125 -32 1.8125 C-31 0 -31 0 -28.375 -1.1875 C-19.43441085 -3.33986405 -8.24501445 -5.27464898 0 0 Z M-23.4609375 26.8515625 C-25.27602055 28.91609009 -25.27602055 28.91609009 -24.875 31.625 C-24.13532087 34.14405125 -24.13532087 34.14405125 -22 36 C-16.71545462 36.71869817 -11.93117852 36.0230476 -7 34 C-7 31.03 -7 28.06 -7 25 C-9.24893954 24.89176227 -11.49937575 24.81430355 -13.75 24.75 C-15.00296875 24.70359375 -16.2559375 24.6571875 -17.546875 24.609375 C-21.04720518 24.70947583 -21.04720518 24.70947583 -23.4609375 26.8515625 Z " fill="#0069B3" transform="translate(448,261)"/>
<path d="M0 0 C3.63 0 7.26 0 11 0 C11.02505615 0.95366455 11.0501123 1.9073291 11.07592773 2.88989258 C11.17012071 6.42909107 11.27031231 9.96809875 11.37231445 13.50708008 C11.41561833 15.03861018 11.45729667 16.57018715 11.49731445 18.10180664 C11.55512732 20.30369182 11.61878969 22.50534211 11.68359375 24.70703125 C11.70030624 25.39150833 11.71701874 26.07598541 11.73423767 26.78120422 C11.8273555 29.77120104 12.04687437 32.14062311 13 35 C15.29882653 36.14941326 16.69389329 36.1657644 19.25 36.1875 C19.99765625 36.20167969 20.7453125 36.21585937 21.515625 36.23046875 C24.65508519 36.03413301 24.65508519 36.03413301 30 34 C30.33 22.78 30.66 11.56 31 0 C34.63 0 38.26 0 42 0 C42 15.18 42 30.36 42 46 C38.04 45.67 34.08 45.34 30 45 C26.77671233 45.83937415 26.77671233 45.83937415 24 47 C20.34375 47.30078125 20.34375 47.30078125 16.5 47.3125 C15.2315625 47.32925781 13.963125 47.34601563 12.65625 47.36328125 C8.60338825 46.96059306 6.32977566 46.34902277 3 44 C0.09548262 38.59884277 -0.41437016 34.2849492 -0.29296875 28.22265625 C-0.28872391 27.41130722 -0.28447906 26.59995819 -0.28010559 25.76402283 C-0.26343867 23.19649744 -0.22581048 20.62978436 -0.1875 18.0625 C-0.1724376 16.31186037 -0.15875193 14.56120832 -0.14648438 12.81054688 C-0.11357468 8.54005608 -0.06187726 4.27016531 0 0 Z " fill="#0069B3" transform="translate(567,259)"/>
<path d="M0 0 C6.78703723 7.8153762 6.43810825 18.31250411 5.875 28.1875 C5.09153135 34.82280239 3.27957843 39.40426362 -1.75 43.875 C-7.41515429 46.6643788 -14.82491102 45.95779673 -20.9375 45.375 C-22.5875 44.715 -24.2375 44.055 -25.9375 43.375 C-25.9375 48.985 -25.9375 54.595 -25.9375 60.375 C-28.5775 60.375 -31.2175 60.375 -33.9375 60.375 C-33.96062764 52.43886213 -33.97841723 44.50273824 -33.98931217 36.56657505 C-33.99454008 32.88185502 -34.00163605 29.19715797 -34.01293945 25.51245117 C-34.02377162 21.95929169 -34.02977753 18.40615437 -34.03237724 14.85297966 C-34.0342309 13.49454334 -34.03785038 12.13610829 -34.04323006 10.77768135 C-34.05044475 8.88117777 -34.05090809 6.98465207 -34.05102539 5.08813477 C-34.053246 4.00669693 -34.05546661 2.92525909 -34.05775452 1.81105042 C-33.9375 -0.625 -33.9375 -0.625 -32.9375 -1.625 C-30.60452567 -1.66592937 -28.27044775 -1.66741723 -25.9375 -1.625 C-25.6075 -0.305 -25.2775 1.015 -24.9375 2.375 C-24.40640625 2.09785156 -23.8753125 1.82070313 -23.328125 1.53515625 C-22.26851562 0.99181641 -22.26851562 0.99181641 -21.1875 0.4375 C-20.49140625 0.07785156 -19.7953125 -0.28179687 -19.078125 -0.65234375 C-12.87429719 -3.47123631 -5.98753326 -3.31225244 0 0 Z M-25.9375 10.375 C-25.9375 18.955 -25.9375 27.535 -25.9375 36.375 C-16.4174575 39.00295242 -16.4174575 39.00295242 -7.0625 37.25 C-3.96735015 34.51898543 -3.13494997 31.46582684 -2.74853516 27.37402344 C-2.66960789 25.18316329 -2.66452622 23.0045816 -2.6875 20.8125 C-2.67976562 20.07064453 -2.67203125 19.32878906 -2.6640625 18.56445312 C-2.68272684 13.32444104 -3.06675738 9.24574262 -6.9375 5.375 C-15.02845564 4.34524201 -17.65257374 6.60912443 -25.9375 10.375 Z " fill="#0069B3" transform="translate(884.9375,260.625)"/>
<path d="M0 0 C0 2.97 0 5.94 0 9 C-7.59 9 -15.18 9 -23 9 C-23 12.3 -23 15.6 -23 19 C-16.07 19 -9.14 19 -2 19 C-2 21.64 -2 24.28 -2 27 C-8.93 27 -15.86 27 -23 27 C-22.67 30.3 -22.34 33.6 -22 37 C-14.41 37 -6.82 37 1 37 C1 39.97 1 42.94 1 46 C-3.79027621 47.59675874 -8.67110061 47.18451582 -13.6875 47.1875 C-14.75162109 47.19974609 -15.81574219 47.21199219 -16.91210938 47.22460938 C-18.47735352 47.22750977 -18.47735352 47.22750977 -20.07421875 47.23046875 C-21.01869873 47.23457764 -21.96317871 47.23868652 -22.9362793 47.24291992 C-26 47 -26 47 -34 45 C-34 30.48 -34 15.96 -34 1 C-22.42124483 -0.78134695 -11.54864776 -2.19974243 0 0 Z " fill="#0069B3" transform="translate(555,259)"/>
<path d="M0 0 C4.10070088 4.86958229 4.12570396 10.47083295 4.09765625 16.61328125 C4.09443359 17.86044922 4.09121094 19.10761719 4.08789062 20.39257812 C4.07532227 22.33293945 4.07532227 22.33293945 4.0625 24.3125 C4.05798828 25.62541016 4.05347656 26.93832031 4.04882812 28.29101562 C4.03705949 31.5273901 4.0206176 34.76367178 4 38 C5.65 38.33 7.3 38.66 9 39 C8.125 43.875 8.125 43.875 7 45 C-0.25650558 45.59479554 -0.25650558 45.59479554 -3.5 43 C-3.995 42.34 -4.49 41.68 -5 41 C-5.57105469 41.28875 -6.14210937 41.5775 -6.73046875 41.875 C-13.63867206 45.03805652 -20.43279051 46.34880798 -28 45 C-30.99437195 42.99957578 -32.67107739 41.61299213 -34.375 38.4375 C-35.36751464 32.97866946 -35.58199232 27.08457962 -32.98828125 22.02734375 C-30.41603774 18.72481029 -27.95018831 17.13678218 -24 16 C-20.55803723 15.76490132 -17.13534258 15.81164742 -13.6875 15.875 C-12.75615234 15.88402344 -11.82480469 15.89304687 -10.86523438 15.90234375 C-8.5765564 15.92581737 -6.28841328 15.95865271 -4 16 C-4.44909061 14.51800098 -4.90956564 13.03944764 -5.375 11.5625 C-5.63023437 10.73878906 -5.88546875 9.91507812 -6.1484375 9.06640625 C-6.80882227 6.82201984 -6.80882227 6.82201984 -9 6 C-10.49881323 5.93965115 -12.00033693 5.93958417 -13.5 5.97265625 C-14.386875 5.98490234 -15.27375 5.99714844 -16.1875 6.00976562 C-18.06257728 6.04492332 -19.93758541 6.08398633 -21.8125 6.12695312 C-23.1428125 6.14338867 -23.1428125 6.14338867 -24.5 6.16015625 C-25.3146875 6.17699463 -26.129375 6.19383301 -26.96875 6.21118164 C-29 6 -29 6 -31 4 C-30.625 1.375 -30.625 1.375 -30 -1 C-19.92111312 -3.14607477 -9.53625579 -5.06046555 0 0 Z M-24.55078125 24.7265625 C-26.17776622 27.27886776 -26.51280412 28.62287568 -26.4375 31.625 C-26.43621094 32.40101563 -26.43492187 33.17703125 -26.43359375 33.9765625 C-26.16105903 36.39627256 -26.16105903 36.39627256 -23 38 C-15.95496884 38.38149988 -10.19416612 36.09708306 -4 33 C-4 29.7 -4 26.4 -4 23 C-6.91765891 22.89193856 -9.83131125 22.81267123 -12.75 22.75 C-13.575 22.71648437 -14.4 22.68296875 -15.25 22.6484375 C-20.20075676 22.55428763 -20.20075676 22.55428763 -24.55078125 24.7265625 Z " fill="#0069B3" transform="translate(210,261)"/>
<path d="M0 0 C3.36653669 3.36653669 3.94829367 6.53887927 4.11352539 11.20800781 C4.10828857 12.44389648 4.10305176 13.67978516 4.09765625 14.953125 C4.0962413 15.61334656 4.09482635 16.27356812 4.09336853 16.95379639 C4.08779245 19.05257794 4.07524447 21.15125095 4.0625 23.25 C4.0574819 24.67708179 4.05291954 26.10416525 4.04882812 27.53125 C4.03783088 31.02086832 4.0205828 34.51042356 4 38 C5.65 38.33 7.3 38.66 9 39 C9 40.65 9 42.3 9 44 C5.81225917 45.59387042 2.46072041 45.52663137 -1 45 C-3.5 43 -3.5 43 -5 41 C-5.58265625 41.28875 -6.1653125 41.5775 -6.765625 41.875 C-13.44854434 44.90122763 -19.67627476 46.14983522 -27 45 C-30.46543001 43.29951002 -31.83072678 42.25390983 -34 39 C-34.30078125 35.8203125 -34.30078125 35.8203125 -34.3125 32.125 C-34.32925781 30.91070312 -34.34601562 29.69640625 -34.36328125 28.4453125 C-33.88177791 23.87879699 -32.4336661 21.25445784 -29 18.25 C-25.73021813 16.20638633 -23.09513046 15.87837497 -19.33203125 15.90234375 C-18.43935547 15.90556641 -17.54667969 15.90878906 -16.62695312 15.91210938 C-15.23379883 15.92467773 -15.23379883 15.92467773 -13.8125 15.9375 C-12.87212891 15.94201172 -11.93175781 15.94652344 -10.96289062 15.95117188 C-8.64186288 15.96295374 -6.32096356 15.97940442 -4 16 C-4.47550561 14.51965236 -4.95551216 13.04074979 -5.4375 11.5625 C-5.70433594 10.73878906 -5.97117187 9.91507812 -6.24609375 9.06640625 C-6.82155494 7.03780412 -6.82155494 7.03780412 -8 6 C-9.53953872 5.94949879 -11.08134048 5.96434186 -12.62109375 6.0078125 C-13.55630859 6.02457031 -14.49152344 6.04132813 -15.45507812 6.05859375 C-17.43964463 6.10278187 -19.42405193 6.15483655 -21.40820312 6.21484375 C-22.34470703 6.22902344 -23.28121094 6.24320312 -24.24609375 6.2578125 C-25.10904053 6.2798877 -25.9719873 6.30196289 -26.86108398 6.32470703 C-27.91984741 6.16397705 -27.91984741 6.16397705 -29 6 C-31 3 -31 3 -30.625 0.8125 C-30.41875 0.214375 -30.2125 -0.38375 -30 -1 C-19.64318735 -3.2436422 -9.77862446 -4.88931223 0 0 Z M-24.55078125 24.76171875 C-26.93629976 28.446091 -26.48156019 30.66595826 -26 35 C-24.84516498 36.8371316 -24.84516498 36.8371316 -23 38 C-16.08164455 38.68684034 -10.04748473 36.02374237 -4 33 C-4 29.7 -4 26.4 -4 23 C-6.91765891 22.89193856 -9.83131125 22.81267123 -12.75 22.75 C-13.575 22.71648437 -14.4 22.68296875 -15.25 22.6484375 C-20.21163723 22.5485977 -20.21163723 22.5485977 -24.55078125 24.76171875 Z " fill="#0069B3" transform="translate(931,261)"/>
<path d="M0 0 C-0.66 2.97 -1.32 5.94 -2 9 C-2.96421875 8.84402344 -3.9284375 8.68804687 -4.921875 8.52734375 C-6.81679688 8.23537109 -6.81679688 8.23537109 -8.75 7.9375 C-10.00296875 7.74027344 -11.2559375 7.54304688 -12.546875 7.33984375 C-16.41277491 6.9113132 -16.41277491 6.9113132 -20 8 C-20.33 8.99 -20.66 9.98 -21 11 C-17.59514144 15.20015399 -12.32919516 16.40712799 -7.4453125 18.3046875 C-3.18054692 20.40322294 0.14824153 22.64537922 1.8125 27.24609375 C2.2482261 32.33864257 2.11046534 35.68548356 -1 40 C-5.34942005 43.35267795 -8.78887938 45.12454729 -14.2734375 45.1328125 C-15.0984375 45.13410156 -15.9234375 45.13539063 -16.7734375 45.13671875 C-17.63195312 45.13285156 -18.49046875 45.12898438 -19.375 45.125 C-20.22578125 45.12886719 -21.0765625 45.13273437 -21.953125 45.13671875 C-26.09619909 45.13026536 -29.96064436 45.04724035 -34 44 C-33.34 41.03 -32.68 38.06 -32 35 C-30.65164063 35.01160156 -29.30328125 35.02320313 -27.9140625 35.03515625 C-26.15104305 35.04453401 -24.3880221 35.05363423 -22.625 35.0625 C-21.73554687 35.07087891 -20.84609375 35.07925781 -19.9296875 35.08789062 C-19.07890625 35.09111328 -18.228125 35.09433594 -17.3515625 35.09765625 C-16.17327881 35.10551147 -16.17327881 35.10551147 -14.97119141 35.11352539 C-12.92227332 35.12573953 -12.92227332 35.12573953 -11 34 C-10.88469556 31.59670195 -10.88469556 31.59670195 -12 29 C-14.64172114 27.5642171 -17.02112629 26.47541236 -19.8125 25.4375 C-28.8857662 21.9614309 -28.8857662 21.9614309 -32 18 C-33.24283781 14.27148658 -33.5280726 10.87253239 -33 7 C-30.74583906 2.57516555 -28.48248125 0.12917859 -24 -2 C-15.66364977 -4.44784001 -8.09344212 -2.54149211 0 0 Z " fill="#0069B3" transform="translate(654,261)"/>
<path d="M0 0 C4.63573715 3.82952199 6.56901383 7.21596836 7.484375 13.12890625 C9.00978994 32.84713758 9.00978994 32.84713758 3.1875 40.125 C-0.16111694 43.73396517 -3.64102753 44.85542846 -8.48828125 45.37109375 C-21.29130979 45.59341396 -21.29130979 45.59341396 -26.55078125 41.5546875 C-32.25547488 35.43482749 -32.24869838 26.69216759 -32.15234375 18.8125 C-31.78006338 11.93963163 -30.49875284 6.39850341 -26 1 C-18.34165664 -4.69466558 -8.21247625 -4.41398617 0 0 Z M-20 6.375 C-24.84940394 12.73984267 -24.18295533 20.60960095 -23.58203125 28.23828125 C-22.92360219 31.36250502 -21.8407614 33.40475368 -20 36 C-16.14822737 38.49232347 -12.47444143 38.1596973 -8.08984375 37.546875 C-5.13038296 36.77243666 -3.74552854 35.4728321 -2 33 C-0.73738995 29.21216985 -0.77682944 25.63478174 -0.75 21.6875 C-0.729375 20.94048828 -0.70875 20.19347656 -0.6875 19.42382812 C-0.6532391 14.54593285 -1.27396879 11.21006222 -4 7 C-8.94682083 3.70211945 -14.64205193 3.9192738 -20 6.375 Z " fill="#0069B3" transform="translate(760,261)"/>
<path d="M0 0 C3.25963341 4.96559651 3.41683327 9.13635229 3.328125 14.86328125 C3.32625183 15.6958696 3.32437866 16.52845795 3.32244873 17.38627625 C3.31575655 19.13524416 3.30189883 20.88419782 3.28125 22.63305664 C3.24989776 25.32126642 3.24025605 28.00889054 3.234375 30.69726562 C3.22521226 32.39844472 3.21483882 34.09961781 3.203125 35.80078125 C3.19675018 37.01161125 3.19675018 37.01161125 3.19024658 38.24690247 C3.11720782 43.88279218 3.11720782 43.88279218 2 45 C-1 45.125 -1 45.125 -4 45 C-5.98898479 43.01101521 -5.20817876 39.07943004 -5.24609375 36.3515625 C-5.27903482 34.77343201 -5.31224642 33.19530714 -5.34570312 31.6171875 C-5.39312439 29.11983153 -5.43753934 26.62249799 -5.47680664 24.125 C-5.516507 21.72110759 -5.56806071 19.31769252 -5.62109375 16.9140625 C-5.6295079 16.16710114 -5.63792206 15.42013977 -5.64659119 14.65054321 C-5.73579255 10.91315443 -5.87534828 9.18697758 -8 6 C-13.13646415 5.35794198 -16.51596732 6.03523468 -21.28125 8.02734375 C-22.16876953 8.394646 -23.05628906 8.76194824 -23.97070312 9.14038086 C-24.64037109 9.42405518 -25.31003906 9.70772949 -26 10 C-26.02505615 11.02472412 -26.0501123 12.04944824 -26.07592773 13.10522461 C-26.16984484 16.89409676 -26.27010317 20.68277881 -26.37231445 24.47143555 C-26.41572297 26.11364303 -26.45739358 27.75589739 -26.49731445 29.39819336 C-26.5548744 31.75388745 -26.61860892 34.10934428 -26.68359375 36.46484375 C-26.70866249 37.57266457 -26.70866249 37.57266457 -26.73423767 38.7028656 C-26.88612829 43.88612829 -26.88612829 43.88612829 -28 45 C-31 45.125 -31 45.125 -34 45 C-35 44 -35 44 -35.12025452 42.13340759 C-35.11803391 41.31844315 -35.11581329 40.5034787 -35.11352539 39.66381836 C-35.11344986 38.7429393 -35.11337433 37.82206024 -35.11329651 36.87327576 C-35.10813522 35.87224319 -35.10297394 34.87121063 -35.09765625 33.83984375 C-35.0962413 32.82024063 -35.09482635 31.80063751 -35.09336853 30.75013733 C-35.08775097 27.47922893 -35.0751955 24.20838787 -35.0625 20.9375 C-35.05748726 18.72591244 -35.05292396 16.51432382 -35.04882812 14.30273438 C-35.03777584 8.86846643 -35.02102063 3.43423803 -35 -2 C-32.36 -2 -29.72 -2 -27 -2 C-27 -0.68 -27 0.64 -27 2 C-26.39671875 1.72285156 -25.7934375 1.44570313 -25.171875 1.16015625 C-24.37265625 0.79792969 -23.5734375 0.43570312 -22.75 0.0625 C-21.96109375 -0.29714844 -21.1721875 -0.65679687 -20.359375 -1.02734375 C-13.26382426 -3.95249629 -6.7685291 -3.90492063 0 0 Z " fill="#0069B3" transform="translate(259,261)"/>
<path d="M0 0 C3.62003391 4.4142143 3.4095859 8.54695964 3.328125 13.984375 C3.32625183 14.84057434 3.32437866 15.69677368 3.32244873 16.57891846 C3.31574671 18.38093993 3.3018691 20.18294731 3.28125 21.98486328 C3.24995064 24.75436802 3.24026268 27.52330426 3.234375 30.29296875 C3.22521045 32.04427783 3.21483643 33.7955811 3.203125 35.546875 C3.19675018 36.79522125 3.19675018 36.79522125 3.19024658 38.06878662 C3.11719031 43.88280969 3.11719031 43.88280969 2 45 C-0.33944736 44.71269945 -2.6739143 44.38063221 -5 44 C-5.01981934 42.95545654 -5.03963867 41.91091309 -5.06005859 40.8347168 C-5.13612114 36.9599595 -5.22483728 33.08557743 -5.31738281 29.21118164 C-5.35566993 27.53417366 -5.39052331 25.85708362 -5.421875 24.17993164 C-5.46753179 21.76939568 -5.5255241 19.35942443 -5.5859375 16.94921875 C-5.59748871 16.19912033 -5.60903992 15.44902191 -5.62094116 14.67619324 C-5.72695459 10.93872287 -5.87619082 9.18571377 -8 6 C-13.13646415 5.35794198 -16.51596732 6.03523468 -21.28125 8.02734375 C-22.16876953 8.394646 -23.05628906 8.76194824 -23.97070312 9.14038086 C-24.64037109 9.42405518 -25.31003906 9.70772949 -26 10 C-26.02505615 11.02472412 -26.0501123 12.04944824 -26.07592773 13.10522461 C-26.16984484 16.89409676 -26.27010317 20.68277881 -26.37231445 24.47143555 C-26.41572297 26.11364303 -26.45739358 27.75589739 -26.49731445 29.39819336 C-26.5548744 31.75388745 -26.61860892 34.10934428 -26.68359375 36.46484375 C-26.70866249 37.57266457 -26.70866249 37.57266457 -26.73423767 38.7028656 C-26.88612829 43.88612829 -26.88612829 43.88612829 -28 45 C-30.33944736 44.71269945 -32.6739143 44.38063221 -35 44 C-35.02527062 37.60962769 -35.04283317 31.21926817 -35.05493164 24.82885742 C-35.05997308 22.65307127 -35.06680607 20.47728853 -35.07543945 18.30151367 C-35.08751338 15.18146933 -35.09323005 12.06146962 -35.09765625 8.94140625 C-35.10281754 7.96224747 -35.10797882 6.98308868 -35.11329651 5.97425842 C-35.11337204 5.07340012 -35.11344757 4.17254181 -35.11352539 3.24438477 C-35.115746 2.44718521 -35.11796661 1.64998566 -35.12025452 0.82862854 C-35 -1 -35 -1 -34 -2 C-31.66702567 -2.04092937 -29.33294775 -2.04241723 -27 -2 C-26.67 -0.68 -26.34 0.64 -26 2 C-25.46890625 1.72285156 -24.9378125 1.44570313 -24.390625 1.16015625 C-23.33101562 0.61681641 -23.33101562 0.61681641 -22.25 0.0625 C-21.55390625 -0.29714844 -20.8578125 -0.65679687 -20.140625 -1.02734375 C-13.20889489 -4.17698024 -6.65366722 -3.71069902 0 0 Z " fill="#0069B3" transform="translate(980,261)"/>
<path d="M0 0 C2.31 0 4.62 0 7 0 C10.27682495 7.42948329 13.12271324 14.96655078 15.8125 22.625 C16.12646729 23.51413086 16.44043457 24.40326172 16.76391602 25.31933594 C17.05451904 26.1549707 17.34512207 26.99060547 17.64453125 27.8515625 C17.90596924 28.60260254 18.16740723 29.35364258 18.43676758 30.12744141 C19 32 19 32 19 34 C19.66 34 20.32 34 21 34 C21.23460937 32.78441406 21.46921875 31.56882812 21.7109375 30.31640625 C23.11611101 23.99312547 25.38456475 18.00417857 27.625 11.9375 C28.04523437 10.78572266 28.46546875 9.63394531 28.8984375 8.44726562 C29.92728295 5.62963206 30.96123455 2.81398816 32 0 C34.64 0 37.28 0 40 0 C39.32305902 5.65592046 37.4682093 10.71900919 35.54296875 16.04296875 C35.02661613 17.48933464 35.02661613 17.48933464 34.49983215 18.96492004 C33.40044276 22.04082742 32.29405515 25.1141642 31.1875 28.1875 C30.45462158 30.23486267 29.72219515 32.2823872 28.99023438 34.33007812 C25.68647655 43.56301315 22.35656262 52.78612791 19 62 C16.03 62 13.06 62 10 62 C10.39574219 61.03320312 10.79148437 60.06640625 11.19921875 59.0703125 C11.69685845 57.75579255 12.19286489 56.44065348 12.6875 55.125 C12.95111328 54.49335938 13.21472656 53.86171875 13.48632812 53.2109375 C15.73138674 47.06009197 14.27521649 42.95391721 12 37 C11.50178447 35.65289949 11.00472328 34.30537173 10.50854492 32.95751953 C8.47741043 27.47729228 6.4036878 22.01330977 4.31396484 16.55517578 C3.41615438 14.20592871 2.52775461 11.85329717 1.640625 9.5 C1.22046112 8.41416626 1.22046112 8.41416626 0.79180908 7.30639648 C0.13617517 5.5583906 -0.43976617 3.78087575 -1 2 C-0.67 1.34 -0.34 0.68 0 0 Z " fill="#0069B3" transform="translate(990,259)"/>
<path d="M0 0 C0 1.98 0 3.96 0 6 C-4.59978466 7.54927473 -9.46287764 7.01430174 -14.24414062 6.87304688 C-18.06895075 6.81267383 -19.73335971 6.8222398 -23 9 C-25.93574198 16.10758585 -26.0223188 24.60926647 -24.25 32.0625 C-22.80235008 35.4644773 -22.24964328 36.29494025 -19 38 C-15.74173935 38.36517594 -12.52328553 38.28178223 -9.25 38.1875 C-8.36183594 38.17396484 -7.47367188 38.16042969 -6.55859375 38.14648438 C-4.37177422 38.11121309 -2.18620034 38.06192752 0 38 C0.495 40.475 0.495 40.475 1 43 C-4.01989955 46.00240828 -7.82567833 46.46475201 -13.5 46.375 C-14.23347656 46.38660156 -14.96695313 46.39820313 -15.72265625 46.41015625 C-21.57924397 46.37872555 -25.61952471 44.91760509 -30.25 41.1875 C-34.65828849 35.67713939 -34.33603815 29.28028703 -34.3125 22.5625 C-34.32861328 21.64662109 -34.34472656 20.73074219 -34.36132812 19.78710938 C-34.36644638 12.65737505 -33.2994024 7.87425299 -28.75 2.1875 C-20.3842406 -4.46708134 -9.63179634 -2.25211104 0 0 Z " fill="#0069B3" transform="translate(723,260)"/>
<path d="M0 0 C1.22332031 -0.03738281 2.44664062 -0.07476563 3.70703125 -0.11328125 C7.77707269 0.38462505 9.35317704 1.40483042 12.1875 4.3125 C14.2137419 10.3912257 14.15527511 17.06726175 11.625 22.9375 C8.49409204 25.98812827 6.51173711 26.6744978 2.1875 27.3125 C-2.4765125 27.22583761 -6.82193711 26.90006499 -10.8125 24.3125 C-13.27349763 20.91883129 -13.14383396 17.46650762 -13.1875 13.375 C-13.21585938 12.16972656 -13.24421875 10.96445313 -13.2734375 9.72265625 C-12.73447361 5.73523697 -11.61315018 4.13917853 -8.8125 1.3125 C-5.89002427 -0.14873786 -3.25396161 0.0647385 0 0 Z " fill="#0069B3" transform="translate(769.8125,-0.3125)"/>
<path d="M0 0 C1.21429688 -0.02835938 2.42859375 -0.05671875 3.6796875 -0.0859375 C7.69127964 0.45076077 9.28470362 1.55566522 12.125 4.375 C13.58623786 7.29747573 13.3727615 9.93353839 13.4375 13.1875 C13.47488281 14.41082031 13.51226562 15.63414063 13.55078125 16.89453125 C13.0519352 20.97225444 12.02925444 22.52799789 9.125 25.375 C3.75110071 27.69315264 -1.26559774 27.84562981 -6.875 26.375 C-10.33621174 24.21174266 -11.58241598 23.25275207 -12.875 19.375 C-13.0197963 17.42024991 -13.09567502 15.4598862 -13.125 13.5 C-13.16367187 11.95699219 -13.16367187 11.95699219 -13.203125 10.3828125 C-12.82707858 6.9357203 -11.93601514 5.13907171 -9.875 2.375 C-6.24295662 -0.04636226 -4.32356165 0.04570361 0 0 Z " fill="#0069B3" transform="translate(455.875,-0.375)"/>
</svg>
